<svg xmlns="http://www.w3.org/2000/svg" xmlns:xlink="http://www.w3.org/1999/xlink" viewBox="0 0 66 44" fill="#fff" fill-rule="evenodd" stroke="#000" stroke-linecap="round" stroke-linejoin="round"><use xlink:href="#A" x=".5" y=".5"/><symbol id="A" overflow="visible"><path d="M51.96 28.01c0 2.618-1.44 3.926-4.057 4.057H15.967c-2.618 0-4.057-1.3-4.057-4.057 0-2.618 1.44-3.926 4.057-4.057h32.065c2.618.13 3.926 1.44 3.926 4.057zm-3.926 6.02H15.967c-2.618 0-4.057 1.3-4.057 4.057 0 2.618 1.44 3.926 4.057 4.057h32.065c2.618 0 4.057-1.3 4.057-4.057-.13-2.748-1.44-4.057-4.057-4.057zm9.947-22.12c-2.618 0-4.057 1.3-4.057 3.926v22.12c0 2.618 1.44 3.926 4.057 4.057 3.925-.14 6.019-4.057 6.019-12.04v-9.947c0-5.366-2.094-7.984-6.02-8.115zm-51.96 0C2.094 12.043 0 14.66 0 20.026v9.947c0 7.984 2.094 11.9 6.02 12.04 2.618 0 4.057-1.3 4.057-4.057V15.969c-.13-2.618-1.44-3.926-4.057-4.057zm51.96-1.963c0-6.675-3.534-9.816-9.947-9.947H15.967C9.423.13 6.02 3.403 6.02 9.947c3.926 0 6.02 2.094 6.02 6.02s2.094 6.02 6.02 6.02h28c3.926 0 6.02-2.094 6.02-6.02-.13-4.057 2.094-5.9 5.9-6.02z" stroke="none" fill="#e42528" fill-rule="nonzero"/></symbol></svg>